<svg xmlns="http://www.w3.org/2000/svg" width="260" height="260" viewBox="0 0 260 260">
  <g opacity="0.2" transform="translate(130,130)">
    <rect x="-100" y="-100" width="200" height="200" rx="12" fill="none" stroke="#6FC3DF" stroke-width="3"/>
    <path d="M-50,-40 L-50,40 L-20,40" stroke="#6FC3DF" stroke-width="6" fill="none" stroke-linecap="round" stroke-linejoin="round"/>
    <path d="M10,-40 L10,0 L50,0" stroke="#6FC3DF" stroke-width="6" fill="none" stroke-linecap="round" stroke-linejoin="round"/>
    <path d="M10,0 L10,40" stroke="#6FC3DF" stroke-width="6" fill="none" stroke-linecap="round"/>
    <circle cx="-50" cy="-40" r="5" fill="#6FC3DF"/>
    <circle cx="-20" cy="40" r="5" fill="#6FC3DF"/>
    <circle cx="50" cy="0" r="5" fill="#6FC3DF"/>
    <circle cx="10" cy="-40" r="5" fill="#6FC3DF"/>
    <circle cx="10" cy="40" r="5" fill="#6FC3DF"/>
    <circle cx="-85" cy="-85" r="4" fill="none" stroke="#6FC3DF" stroke-width="2"/>
    <circle cx="85" cy="-85" r="4" fill="none" stroke="#6FC3DF" stroke-width="2"/>
    <circle cx="-85" cy="85" r="4" fill="none" stroke="#6FC3DF" stroke-width="2"/>
    <circle cx="85" cy="85" r="4" fill="none" stroke="#6FC3DF" stroke-width="2"/>
    <path d="M-85,-50 L-65,-50" stroke="#6FC3DF" stroke-width="2" fill="none" stroke-linecap="round"/>
    <path d="M65,50 L85,50" stroke="#6FC3DF" stroke-width="2" fill="none" stroke-linecap="round"/>
    <path d="M-85,20 L-75,20 L-75,30" stroke="#6FC3DF" stroke-width="2" fill="none" stroke-linecap="round" stroke-linejoin="round"/>
    <path d="M75,-30 L75,-20 L85,-20" stroke="#6FC3DF" stroke-width="2" fill="none" stroke-linecap="round" stroke-linejoin="round"/>
  </g>
</svg>
